<svg width="242" height="72" viewBox="0 0 242 72" fill="none" xmlns="http://www.w3.org/2000/svg">
<path d="M31.8117 15.2811C36.3438 15.2811 40.0062 16.7266 42.7987 19.6176C45.5911 22.4627 46.9875 26.4551 46.9875 31.5947V53.9656H37.3739V32.9025C37.3739 29.8738 36.6185 27.5564 35.1078 25.9503C33.5971 24.2983 31.537 23.4723 28.9276 23.4723C26.2725 23.4723 24.1666 24.2983 22.6101 25.9503C21.0994 27.5564 20.3441 29.8738 20.3441 32.9025V53.9656H10.7305V25.0909L20.3441 22.6364L10.7305 20.5813V15.8317H20.3441V20.5813C21.6259 18.9293 23.251 17.6444 25.2195 16.7266C27.2338 15.7629 29.4312 15.2811 31.8117 15.2811ZM91.494 34.0727C91.494 35.4493 91.4023 36.6883 91.2193 37.7897H63.4085C63.6372 40.543 64.5985 42.6999 66.2926 44.26C67.9863 45.8202 70.0694 46.6004 72.5414 46.6004C76.1122 46.6004 78.6529 45.063 80.1637 41.9885H90.5326C89.4339 45.6598 87.3278 48.6885 84.2151 51.0746C81.102 53.4149 77.2796 54.5851 72.7474 54.5851C69.085 54.5851 65.7889 53.7821 62.8592 52.1759C59.9751 50.5239 57.709 48.2066 56.061 45.2237C54.4586 42.2408 53.6576 38.7991 53.6576 34.8987C53.6576 30.9522 54.4586 27.4876 56.061 24.5048C57.663 21.522 59.9064 19.2276 62.7905 17.6214C65.6746 16.0153 68.9933 15.2122 72.7474 15.2122C76.3639 15.2122 79.5913 15.9924 82.4297 17.5526C85.3138 19.1128 87.5338 21.3384 89.0906 24.2295C90.6926 27.0746 91.494 30.3556 91.494 34.0727ZM81.537 31.3193C81.491 28.8413 80.5983 26.8681 78.8589 25.3996C77.1192 23.8853 74.9905 23.1281 72.4728 23.1281C70.092 23.1281 68.078 23.8623 66.4299 25.3308C64.8276 26.7533 63.8432 28.7495 63.4772 31.3193H81.537ZM113.069 54.5851C109.955 54.5851 107.163 54.0344 104.691 52.9331C102.219 51.786 100.251 50.2486 98.7855 48.3212C97.3665 46.3939 96.5881 44.26 96.4508 41.9197H106.133C106.316 43.3883 107.026 44.6042 108.262 45.5679C109.543 46.5316 111.123 47.0134 113 47.0134C114.831 47.0134 116.25 46.6462 117.257 45.912C118.31 45.1779 118.837 44.237 118.837 43.0899C118.837 41.8509 118.196 40.933 116.914 40.3365C115.678 39.694 113.687 39.0056 110.94 38.2715C108.101 37.5832 105.767 36.8718 103.936 36.1377C102.15 35.4036 100.594 34.2792 99.2662 32.7648C97.9845 31.2505 97.3435 29.2084 97.3435 26.6386C97.3435 24.5277 97.9385 22.6004 99.1289 20.8566C100.365 19.1128 102.105 17.7361 104.348 16.7266C106.637 15.717 109.315 15.2122 112.382 15.2122C116.914 15.2122 120.53 16.3595 123.232 18.6539C125.933 20.9025 127.42 23.9541 127.695 27.8088H118.493C118.356 26.2945 117.715 25.1013 116.571 24.2295C115.472 23.3117 113.984 22.8528 112.107 22.8528C110.368 22.8528 109.017 23.174 108.056 23.8164C107.14 24.4589 106.682 25.3537 106.682 26.501C106.682 27.7858 107.323 28.7725 108.605 29.4608C109.887 30.1033 111.878 30.7686 114.579 31.457C117.326 32.1453 119.592 32.8566 121.377 33.5908C123.163 34.3249 124.697 35.4724 125.978 37.0325C127.306 38.5469 127.993 40.5661 128.038 43.0899C128.038 45.2926 127.42 47.2657 126.184 49.0096C124.994 50.7535 123.255 52.1301 120.965 53.1396C118.722 54.1033 116.09 54.5851 113.069 54.5851ZM147.123 23.7476V42.195C147.123 43.4798 147.42 44.4208 148.015 45.0172C148.656 45.5679 149.709 45.8432 151.174 45.8432H155.638V53.9656H149.595C141.492 53.9656 137.44 50.019 137.44 42.1262V23.7476H132.908L147.123 15.8317H137.44V6.40153H147.123V15.8317H155.638V23.7476H147.123ZM167.428 11.2887C165.734 11.2887 164.315 10.761 163.171 9.70555C162.072 8.60421 161.522 7.25049 161.522 5.64436C161.522 4.03823 162.072 2.70747 163.171 1.65201C164.315 0.550669 165.734 0 167.428 0C169.122 0 170.518 0.550669 171.617 1.65201C172.761 2.70747 173.333 4.03823 173.333 5.64436C173.333 7.25049 172.761 8.60421 171.617 9.70555C170.518 10.761 169.122 11.2887 167.428 11.2887ZM172.166 15.8317V53.9656H162.553V15.8317H172.166ZM199.106 23.7476H192.445V53.9656H182.694V23.7476H178.368V15.8317H182.694V13.9044C182.694 9.22371 184.022 5.78203 186.677 3.57935C189.332 1.37667 193.338 0.344172 198.694 0.481839V8.60421C196.359 8.55833 194.734 8.94838 193.819 9.77438C192.903 10.6004 192.445 12.0918 192.445 14.2486V15.8317H199.106V23.7476ZM241.73 15.8317L218.177 72H207.946L216.186 53.0019L204.188 23.7476L200.941 15.8317H211.722L221.542 42.4704L231.499 15.8317H241.73Z" fill="url(#paint0_linear_580_2436)"/>
<defs>
<linearGradient id="paint0_linear_580_2436" x1="12.8419" y1="4.26316" x2="186.712" y2="139.137" gradientUnits="userSpaceOnUse">
<stop offset="0.0574027" stop-color="#FFD8B5"/>
<stop offset="0.440102" stop-color="#FFB2E8"/>
<stop offset="1" stop-color="#7FA1FD"/>
</linearGradient>
</defs>
</svg>
