<svg width="24" height="24" viewBox="0 0 24 24" fill="none" xmlns="http://www.w3.org/2000/svg">
<path d="M2 18.5V7.5C2 6.96957 2.21071 6.46086 2.58579 6.08579C2.96086 5.71071 3.46957 5.5 4 5.5H20C20.5304 5.5 21.0391 5.71071 21.4142 6.08579C21.7893 6.46086 22 6.96957 22 7.5V18.5C22 19.0304 21.7893 19.5391 21.4142 19.9142C21.0391 20.2893 20.5304 20.5 20 20.5H4C3.46957 20.5 2.96086 20.2893 2.58579 19.9142C2.21071 19.5391 2 19.0304 2 18.5Z" stroke="white" stroke-width="1.5"/>
<path d="M8.5 1L12 4.5L15.5 1" stroke="white" stroke-width="1.5" stroke-linecap="round" stroke-linejoin="round"/>
<path d="M7 23H17" stroke="white" stroke-width="1.5" stroke-linecap="round" stroke-linejoin="round"/>
</svg>
