<svg width="231" height="72" viewBox="0 0 231 72" fill="none" xmlns="http://www.w3.org/2000/svg">
<path d="M21.0812 15.2811C25.6134 15.2811 29.2757 16.7266 32.0682 19.6176C34.8606 22.4627 36.257 26.4551 36.257 31.5947V53.9656H26.6434V32.9025C26.6434 29.8738 25.888 27.5564 24.3773 25.9503C22.8666 24.2983 20.8066 23.4723 18.1972 23.4723C15.542 23.4723 13.4361 24.2983 11.8797 25.9503C10.369 27.5564 9.6136 29.8738 9.6136 32.9025V53.9656H0V25.0909L9.6136 22.6364L0 20.5813V15.8317H9.6136V20.5813C10.8954 18.9293 12.5206 17.6444 14.4891 16.7266C16.5034 15.7629 18.7007 15.2811 21.0812 15.2811ZM80.7635 34.0727C80.7635 35.4493 80.6718 36.6883 80.4888 37.7897H52.6781C52.9067 40.543 53.8681 42.6999 55.5621 44.26C57.2558 45.8202 59.3389 46.6004 61.811 46.6004C65.3817 46.6004 67.9225 45.063 69.4332 41.9885H79.8021C78.7034 45.6598 76.5974 48.6885 73.4846 51.0746C70.3715 53.4149 66.5491 54.5851 62.017 54.5851C58.3545 54.5851 55.0584 53.7821 52.1287 52.1759C49.2446 50.5239 46.9786 48.2066 45.3305 45.2237C43.7281 42.2408 42.9271 38.7991 42.9271 34.8987C42.9271 30.9522 43.7281 27.4876 45.3305 24.5048C46.9326 21.522 49.176 19.2276 52.06 17.6214C54.9441 16.0153 58.2629 15.2122 62.017 15.2122C65.6334 15.2122 68.8608 15.9924 71.6992 17.5526C74.5833 19.1128 76.8034 21.3384 78.3601 24.2295C79.9621 27.0746 80.7635 30.3556 80.7635 34.0727ZM70.8066 31.3193C70.7606 28.8413 69.8679 26.8681 68.1285 25.3996C66.3888 23.8853 64.26 23.1281 61.7423 23.1281C59.3616 23.1281 57.3475 23.8623 55.6995 25.3308C54.0971 26.7533 53.1127 28.7495 52.7467 31.3193H70.8066ZM102.338 54.5851C99.225 54.5851 96.4326 54.0344 93.9606 52.9331C91.4885 51.786 89.5201 50.2486 88.0551 48.3212C86.636 46.3939 85.8577 44.26 85.7203 41.9197H95.4026C95.5856 43.3883 96.2953 44.6042 97.5313 45.5679C98.813 46.5316 100.392 47.0134 102.269 47.0134C104.101 47.0134 105.52 46.6462 106.527 45.912C107.58 45.1779 108.106 44.237 108.106 43.0899C108.106 41.8509 107.465 40.933 106.184 40.3365C104.948 39.694 102.956 39.0056 100.209 38.2715C97.371 37.5832 95.0363 36.8718 93.2052 36.1377C91.4198 35.4036 89.8635 34.2792 88.5357 32.7648C87.254 31.2505 86.613 29.2084 86.613 26.6386C86.613 24.5277 87.208 22.6004 88.3984 20.8566C89.6344 19.1128 91.3742 17.7361 93.6172 16.7266C95.9063 15.717 98.5844 15.2122 101.651 15.2122C106.184 15.2122 109.8 16.3595 112.501 18.6539C115.202 20.9025 116.69 23.9541 116.965 27.8088H107.763C107.626 26.2945 106.985 25.1013 105.84 24.2295C104.742 23.3117 103.254 22.8528 101.377 22.8528C99.637 22.8528 98.2867 23.174 97.3253 23.8164C96.4096 24.4589 95.952 25.3537 95.952 26.501C95.952 27.7858 96.593 28.7725 97.8747 29.4608C99.1564 30.1033 101.148 30.7686 103.849 31.457C106.596 32.1453 108.862 32.8566 110.647 33.5908C112.432 34.3249 113.966 35.4724 115.248 37.0325C116.576 38.5469 117.262 40.5661 117.308 43.0899C117.308 45.2926 116.69 47.2657 115.454 49.0096C114.263 50.7535 112.524 52.1301 110.235 53.1396C107.992 54.1033 105.36 54.5851 102.338 54.5851ZM136.392 23.7476V42.195C136.392 43.4798 136.69 44.4208 137.285 45.0172C137.926 45.5679 138.979 45.8432 140.444 45.8432H144.907V53.9656H138.864C130.761 53.9656 126.71 50.019 126.71 42.1262V23.7476H122.178L136.392 15.8317H126.71V6.40153H136.392V15.8317H144.907V23.7476H136.392ZM156.698 11.2887C155.003 11.2887 153.584 10.761 152.44 9.70555C151.341 8.60421 150.792 7.25049 150.792 5.64436C150.792 4.03823 151.341 2.70747 152.44 1.65201C153.584 0.550669 155.003 0 156.698 0C158.391 0 159.788 0.550669 160.886 1.65201C162.031 2.70747 162.603 4.03823 162.603 5.64436C162.603 7.25049 162.031 8.60421 160.886 9.70555C159.788 10.761 158.391 11.2887 156.698 11.2887ZM161.436 15.8317V53.9656H151.822V15.8317H161.436ZM188.376 23.7476H181.715V53.9656H171.964V23.7476H167.638V15.8317H171.964V13.9044C171.964 9.22371 173.291 5.78203 175.947 3.57935C178.602 1.37667 182.608 0.344172 187.964 0.481839V8.60421C185.629 8.55833 184.004 8.94838 183.088 9.77438C182.173 10.6004 181.715 12.0918 181.715 14.2486V15.8317H188.376V23.7476ZM231 15.8317L207.447 72H197.215L205.455 53.0019L193.457 23.7476L190.211 15.8317H200.992L210.811 42.4704L220.768 15.8317H231Z" fill="white"/>
</svg>
