<svg width="24" height="24" viewBox="0 0 24 24" fill="none" xmlns="http://www.w3.org/2000/svg">
<g clip-path="url(#clip0_623_2372)">
<path d="M2.52855 4.82715L0.332031 6.9339C0.332031 6.9339 7.13404 8.77236 11.5934 8.82898C16.417 8.89027 23.7998 6.9339 23.7998 6.9339L21.2489 4.82715C19.7845 5.394 15.4543 6.69981 11.5934 6.64707C7.9573 6.59735 4.16332 5.49716 2.52855 4.82715Z" fill="white"/>
<path d="M6.47416 14.6958C7.74801 11.8654 8.18401 9.35922 8.24278 8.45996L10.6206 8.69652C10.4584 9.65479 9.81564 12.4734 8.54191 16.0824C7.26819 19.6912 5.1807 22.7458 4.29617 23.822L2.58203 21.4624C3.34862 20.3862 5.20027 17.5262 6.47416 14.6958Z" fill="white"/>
<path d="M18.0058 14.6958C16.7319 11.8654 16.2959 9.35922 16.2372 8.45996L13.8594 8.69652C14.0215 9.65479 14.6643 12.4734 15.938 16.0824C17.2117 19.6912 19.2993 22.7458 20.1837 23.822L21.8979 21.4624C21.1313 20.3862 19.2797 17.5262 18.0058 14.6958Z" fill="white"/>
<path d="M11.9203 3.52557C9.47918 3.52557 7.27659 2.31684 6.48047 1.71247L8.11105 0.304688C8.71548 0.835439 10.4343 1.71247 11.9203 1.71247C13.4064 1.71247 15.0519 0.74699 15.5088 0.304688L17.6544 1.71247C17.0647 2.13997 14.3616 3.52557 11.9203 3.52557Z" fill="white"/>
<path d="M11.975 17.1486C9.5338 17.1486 7.33128 15.9399 6.53516 15.3355L8.16574 13.9277C8.77017 14.4584 10.4889 15.3355 11.975 15.3355C13.4611 15.3355 15.1066 14.37 15.5635 13.9277L17.7091 15.3355C17.1193 15.763 14.4163 17.1486 11.975 17.1486Z" fill="white"/>
</g>
<defs>
<clipPath id="clip0_623_2372">
<rect width="24" height="24" fill="white"/>
</clipPath>
</defs>
</svg>
